<svg width="182" height="43" viewBox="0 0 182 43" fill="none" xmlns="http://www.w3.org/2000/svg">
<path d="M54.4281 31.7125C53.5517 31.7125 52.9226 31.6206 52.5408 31.437C52.1588 31.2443 51.968 30.9339 51.968 30.5053C51.968 30.1728 52.1938 29.9758 52.6448 29.9148C53.1307 29.8621 53.452 29.7353 53.6082 29.5343C53.7641 29.333 53.8422 28.983 53.8422 28.4842V16.989C53.8422 16.5078 53.7686 16.1885 53.621 16.031C53.4736 15.8736 53.1654 15.7598 52.697 15.6898C52.2543 15.6286 52.033 15.4318 52.033 15.0993C52.033 14.6619 52.2154 14.347 52.5797 14.1545C52.9441 13.962 53.569 13.8658 54.454 13.8658C55.9465 13.8658 57.8034 13.8702 60.025 13.8789C62.2551 13.8877 63.613 13.892 64.099 13.892C64.3333 13.892 64.6196 13.8352 64.9581 13.7214C65.3052 13.6077 65.5784 13.5509 65.7781 13.5509C66.1945 13.5509 66.5157 13.7214 66.7412 14.0626C66.9667 14.4038 67.1706 15.0818 67.353 16.0966C67.5873 17.3389 67.6438 18.205 67.5222 18.6949C67.4007 19.1848 67.0883 19.4298 66.585 19.4298C66.2206 19.4385 65.9428 19.3466 65.752 19.1542C65.5611 18.9617 65.2791 18.5418 64.9059 17.8944C64.6542 17.317 64.4375 16.9015 64.2552 16.6478C64.0816 16.3853 63.8516 16.1885 63.5653 16.0573C63.2875 15.926 62.9058 15.8604 62.4199 15.8604L59.9208 15.8342C59.5476 15.8342 59.2744 15.9217 59.1008 16.0966C58.9358 16.2716 58.8534 16.5778 58.8534 17.0152V22.1724L61.4957 22.1461C61.9904 22.1374 62.3418 21.9974 62.5499 21.7262C62.7584 21.4463 62.9101 20.9695 63.0055 20.2958C63.049 20.0596 63.1097 19.8891 63.1878 19.7841C63.2747 19.6704 63.4091 19.6135 63.5914 19.6135C64.2594 19.6135 64.5545 20.4752 64.4764 22.1986L64.3983 24.1933C64.3202 25.8205 63.9732 26.634 63.3571 26.634C63.1921 26.634 63.0663 26.5859 62.9797 26.4897C62.8927 26.3847 62.8234 26.2185 62.7715 25.991C62.6584 25.2912 62.5198 24.8406 62.3548 24.6394C62.1901 24.4295 61.8385 24.3245 61.3005 24.3245H58.8534V28.4842C58.8534 29.0005 58.9619 29.359 59.1789 29.5603C59.3959 29.7527 59.8819 29.8796 60.6368 29.9409C60.8796 29.9672 61.0532 30.0239 61.1574 30.1115C61.2701 30.1903 61.3267 30.3214 61.3267 30.5053C61.3267 30.9425 61.1401 31.2532 60.7669 31.437C60.3937 31.6206 59.7646 31.7125 58.8796 31.7125H54.4281ZM71.2969 31.7125C70.4812 31.7125 69.8867 31.6294 69.5135 31.4631C69.1406 31.297 68.954 31.0212 68.954 30.6364C68.954 30.4351 68.9844 30.2954 69.0452 30.2166C69.1059 30.129 69.2142 30.0634 69.3704 30.0196C69.7697 29.9148 70.0344 29.7748 70.1645 29.5998C70.2946 29.4249 70.3596 29.136 70.3596 28.7337V22.6054C70.3596 22.0368 70.286 21.6693 70.1383 21.5031C69.9995 21.3369 69.7089 21.2538 69.2664 21.2538C69.0494 21.2538 68.902 21.2144 68.8239 21.1357C68.7458 21.057 68.7066 20.917 68.7066 20.7158C68.7066 20.3396 68.9321 20.0334 69.3834 19.7972C69.8347 19.561 70.7285 19.2767 72.0648 18.9442C72.1949 18.9005 72.3554 18.8524 72.5463 18.7999C72.7459 18.7387 72.8891 18.6949 72.976 18.6686C73.0714 18.6424 73.1842 18.6118 73.3142 18.5768C73.4531 18.5331 73.5528 18.5024 73.6136 18.4849C73.6744 18.4674 73.7525 18.4499 73.8479 18.4324C73.9433 18.4062 74.0172 18.3887 74.0692 18.3799C74.1214 18.3712 74.1777 18.3668 74.2384 18.3668C74.308 18.3581 74.3731 18.3537 74.4338 18.3537C74.7375 18.3537 74.9371 18.4412 75.0325 18.6162C75.1365 18.7911 75.1888 19.1061 75.1888 19.561C75.1973 20.7945 75.1888 22.4479 75.1626 24.5213C75.1453 26.5859 75.1365 27.99 75.1365 28.7337C75.1365 29.1623 75.1973 29.4598 75.3188 29.6259C75.4489 29.7923 75.7048 29.9234 76.0868 30.0196C76.2604 30.072 76.3816 30.1422 76.4512 30.2295C76.5293 30.3171 76.5682 30.4526 76.5682 30.6364C76.5682 31.0212 76.3904 31.297 76.0346 31.4631C75.6875 31.6294 75.128 31.7125 74.3557 31.7125H71.2969ZM69.904 14.7057C69.9128 13.997 70.173 13.4153 70.6851 12.9603C71.1972 12.5054 71.8436 12.278 72.6244 12.278C73.4662 12.278 74.1473 12.5142 74.6679 12.9866C75.1973 13.4502 75.4577 14.0583 75.4489 14.8106C75.4489 15.493 75.18 16.0616 74.642 16.5165C74.1041 16.9627 73.4315 17.1814 72.6244 17.1727C71.8263 17.1727 71.171 16.9452 70.659 16.4903C70.1557 16.0354 69.904 15.4405 69.904 14.7057ZM84.7034 32.1981C83.341 32.1981 82.1089 31.8917 81.0069 31.2795C79.9134 30.6582 79.0631 29.8272 78.4556 28.7861C77.8568 27.7452 77.5575 26.599 77.5575 25.348C77.5575 23.957 77.8787 22.7148 78.5209 21.6212C79.1628 20.5277 80.0307 19.6878 81.1239 19.1017C82.2174 18.5156 83.4279 18.2225 84.7554 18.2225C86.2044 18.2225 87.4453 18.5943 88.478 19.3379C89.5107 20.0728 90.2048 21.1051 90.5607 22.4348C90.7516 23.0909 90.7689 23.5809 90.6127 23.9046C90.465 24.2195 90.1006 24.4732 89.5192 24.6657C87.8273 25.2081 85.3325 25.6499 82.035 25.991C82.2693 27.0583 82.6945 27.8546 83.3106 28.3794C83.9266 28.8954 84.7815 29.1537 85.8747 29.1537C87.0201 29.1537 88.0701 28.8256 89.0247 28.1693C89.6754 27.8194 90.1006 27.8282 90.3003 28.1956C90.3784 28.3706 90.3696 28.6025 90.2741 28.8911C90.1787 29.1798 90.027 29.4555 89.8186 29.7178C89.2545 30.5227 88.5345 31.1395 87.658 31.5682C86.7904 31.9879 85.8054 32.1981 84.7034 32.1981ZM81.853 23.7864V24.2982C83.5537 24.0883 84.7945 23.9089 85.5753 23.7602C85.8792 23.7077 86.0786 23.629 86.174 23.524C86.2783 23.419 86.3302 23.2441 86.3302 22.9991C86.2609 22.1942 86.0181 21.5381 85.6014 21.0307C85.1936 20.5233 84.6903 20.2696 84.0916 20.2696C83.3887 20.2696 82.8377 20.5889 82.4386 21.2275C82.0481 21.8662 81.853 22.7192 81.853 23.7864ZM94.3353 31.7125C93.4762 31.7125 92.8644 31.6294 92.5 31.4631C92.1441 31.2881 91.9663 31.0038 91.9663 30.6101C91.9663 30.2865 92.1225 30.0898 92.4349 30.0196C92.8255 29.9234 93.0944 29.788 93.2418 29.613C93.398 29.4292 93.4762 29.1274 93.4762 28.7073L93.45 17.1202C93.45 16.6215 93.3765 16.2847 93.2288 16.1098C93.0899 15.926 92.7647 15.8342 92.2526 15.8342C92.0271 15.8342 91.8666 15.7948 91.7712 15.7161C91.6843 15.6373 91.6408 15.4974 91.6408 15.2962C91.6408 14.885 91.8578 14.5613 92.2918 14.3251C92.7255 14.0889 93.6713 13.7389 95.1291 13.2753C95.9275 13.0216 96.4655 12.8554 96.7432 12.7766C97.0295 12.6979 97.2854 12.6585 97.5112 12.6585C97.8583 12.6585 98.0707 12.7329 98.1488 12.8816C98.2357 13.0216 98.2792 13.3322 98.2792 13.8133C98.2357 15.2131 98.2096 16.7396 98.2011 18.3931C98.1923 20.0378 98.1923 21.9974 98.2011 24.272C98.2184 26.5378 98.2269 28.0688 98.2269 28.8648C98.2269 29.2674 98.2877 29.5429 98.4093 29.6915C98.5308 29.8404 98.7779 29.9497 99.1511 30.0196C99.4548 30.0898 99.6067 30.2865 99.6067 30.6101C99.6067 31.0038 99.4289 31.2881 99.073 31.4631C98.726 31.6294 98.1488 31.7125 97.3419 31.7125H94.3353ZM106.518 32.1454C105.711 32.1454 104.943 31.9968 104.214 31.6993C103.494 31.3932 102.861 30.9645 102.314 30.4133C101.776 29.8621 101.347 29.1755 101.025 28.3531C100.704 27.5221 100.544 26.6078 100.544 25.6105C100.544 23.4322 101.177 21.6737 102.444 20.3352C103.711 18.9967 105.369 18.3275 107.416 18.3275C108.249 18.3275 109.043 18.4718 109.798 18.7605V16.6609C109.798 16.206 109.716 15.9086 109.551 15.7686C109.395 15.6286 109.048 15.5586 108.51 15.5586C108.267 15.5586 108.093 15.5149 107.989 15.4274C107.894 15.3399 107.846 15.1956 107.846 14.9943C107.846 14.6619 108.067 14.3819 108.51 14.1545C108.961 13.927 109.85 13.6165 111.178 13.2228C111.456 13.1528 111.755 13.0697 112.076 12.9735C112.397 12.8772 112.631 12.8072 112.779 12.7635C112.935 12.7198 113.091 12.6848 113.248 12.6585C113.412 12.6235 113.56 12.606 113.69 12.606C113.864 12.606 114.002 12.6235 114.107 12.6585C114.211 12.6935 114.293 12.7329 114.354 12.7766C114.415 12.8204 114.458 12.9122 114.484 13.0522C114.51 13.1834 114.523 13.2972 114.523 13.3934C114.532 13.4809 114.536 13.6471 114.536 13.892V29.0486C114.536 29.3023 114.58 29.4859 114.666 29.5998C114.753 29.7135 114.905 29.7748 115.122 29.7834C115.365 29.7923 115.534 29.8054 115.63 29.8229C115.725 29.8404 115.812 29.8842 115.89 29.954C115.968 30.0153 116.007 30.1158 116.007 30.2558C116.007 30.7896 115.699 31.2357 115.083 31.5945C114.467 31.9444 113.733 32.1194 112.883 32.1194C112.241 32.1194 111.668 31.9705 111.165 31.6732C110.662 31.3757 110.31 30.9514 110.111 30.4002C109.139 31.5639 107.941 32.1454 106.518 32.1454ZM105.256 24.0227C105.256 25.6411 105.533 26.9271 106.089 27.8806C106.644 28.8256 107.373 29.298 108.276 29.298C108.857 29.298 109.364 29.0924 109.798 28.6812V21.1751C109.156 20.7114 108.462 20.4796 107.716 20.4796C106.97 20.4796 106.371 20.8033 105.92 21.4506C105.477 22.0893 105.256 22.9466 105.256 24.0227ZM119.69 31.7125C118.823 31.7125 118.202 31.6163 117.829 31.4238C117.456 31.2314 117.27 30.925 117.27 30.5053C117.27 30.1639 117.491 29.9672 117.933 29.9148C118.402 29.8621 118.714 29.7353 118.871 29.5343C119.027 29.333 119.113 28.983 119.131 28.4842V16.989C119.131 16.5078 119.053 16.1885 118.896 16.031C118.749 15.8736 118.445 15.7598 117.985 15.6898C117.543 15.6373 117.322 15.4405 117.322 15.0993C117.322 14.6619 117.5 14.347 117.855 14.1545C118.22 13.962 118.849 13.8658 119.742 13.8658H126.706C128.112 13.8658 129.379 14.0801 130.507 14.5088C131.635 14.9375 132.568 15.5411 133.305 16.3197C134.052 17.0896 134.62 18.0082 135.01 19.0754C135.41 20.1428 135.609 21.3194 135.609 22.6054C135.609 24.3988 135.21 25.991 134.412 27.3821C133.613 28.7729 132.52 29.8447 131.132 30.5972C129.743 31.3408 128.177 31.7125 126.433 31.7125H119.69ZM124.142 16.7921L124.168 28.4055C124.272 28.843 124.459 29.158 124.728 29.3504C124.997 29.5429 125.404 29.6391 125.951 29.6391H126.511C129.175 29.6391 130.507 27.6971 130.507 23.8127C130.507 21.3282 130.086 19.4035 129.244 18.0388C128.411 16.674 127.227 15.9916 125.691 15.9916H124.936C124.407 15.9916 124.142 16.2585 124.142 16.7921ZM147.467 32.1194C146.746 32.1194 146.143 31.953 145.657 31.6206C145.172 31.2881 144.885 30.7982 144.798 30.1508C143.809 31.5332 142.477 32.2242 140.802 32.2242C139.7 32.2242 138.802 31.8963 138.108 31.24C137.414 30.5751 137.067 29.6915 137.067 28.5893C137.067 27.1459 137.726 25.9998 139.045 25.1512C140.364 24.3026 142.213 23.7864 144.59 23.6027V22.7629C144.59 22.0018 144.412 21.42 144.056 21.0176C143.709 20.6064 143.236 20.4008 142.638 20.4008C142.065 20.4008 141.644 20.5146 141.375 20.742C141.115 20.9695 140.907 21.42 140.75 22.0936C140.603 22.601 140.364 22.9685 140.034 23.1959C139.714 23.4234 139.284 23.5371 138.746 23.5371C137.627 23.5371 137.067 23.0735 137.067 22.1461C137.067 21.49 137.397 20.8558 138.056 20.2434C138.716 19.631 139.583 19.1367 140.659 18.7605C141.735 18.3843 142.85 18.1962 144.004 18.1962C145.566 18.1962 146.833 18.5899 147.805 19.3773C148.777 20.1559 149.259 21.2319 149.25 22.6054V29.0486C149.25 29.3109 149.293 29.4991 149.38 29.613C149.476 29.7267 149.627 29.7834 149.836 29.7834C150.07 29.7923 150.235 29.8097 150.33 29.8361C150.434 29.8535 150.517 29.9016 150.578 29.9804C150.638 30.0503 150.669 30.1639 150.669 30.3214C150.669 30.8114 150.365 31.2357 149.758 31.5945C149.159 31.9444 148.395 32.1194 147.467 32.1194ZM141.31 27.8151C141.301 28.4012 141.432 28.8562 141.701 29.1798C141.97 29.5036 142.33 29.6654 142.781 29.6654C143.414 29.6654 144.018 29.3636 144.59 28.76V25.02C143.584 25.1599 142.785 25.4618 142.195 25.9254C141.605 26.3803 141.31 27.0102 141.31 27.8151ZM157.411 32.1718C156.031 32.1718 154.955 31.835 154.183 31.1613C153.419 30.4878 153.038 29.5429 153.038 28.3268V20.8076H151.97C151.241 20.8076 150.877 20.5714 150.877 20.099C150.877 19.8891 150.994 19.7185 151.228 19.5872C151.463 19.4473 151.879 19.2592 152.478 19.023C153.085 18.778 153.628 18.5199 154.105 18.2487C154.66 17.925 155.172 17.5751 155.641 17.1989C156.118 16.8228 156.474 16.5559 156.708 16.3985C156.942 16.2322 157.177 16.1491 157.411 16.1491C157.663 16.1491 157.823 16.2235 157.892 16.3722C157.962 16.5122 157.997 16.744 157.997 17.0677V18.7605L161.225 18.708C161.546 18.6905 161.75 18.7168 161.836 18.7868C161.923 18.848 161.967 19.0186 161.967 19.2985C161.967 19.8059 161.767 20.1778 161.368 20.414C160.977 20.6502 160.353 20.7682 159.493 20.7682H157.997V28.0513C157.997 28.4799 158.127 28.8035 158.387 29.0223C158.647 29.241 159.016 29.3504 159.493 29.3504C159.78 29.3504 160.274 29.241 160.977 29.0223C161.342 28.8823 161.585 28.9086 161.706 29.101C161.967 29.4859 161.824 29.9715 161.277 30.5577C160.817 31.0651 160.236 31.4588 159.533 31.7388C158.838 32.0274 158.131 32.1718 157.411 32.1718ZM173.239 32.1194C172.518 32.1194 171.915 31.953 171.429 31.6206C170.943 31.2881 170.657 30.7982 170.57 30.1508C169.581 31.5332 168.249 32.2242 166.574 32.2242C165.472 32.2242 164.574 31.8963 163.88 31.24C163.186 30.5751 162.839 29.6915 162.839 28.5893C162.839 27.1459 163.498 25.9998 164.817 25.1512C166.136 24.3026 167.984 23.7864 170.362 23.6027V22.7629C170.362 22.0018 170.184 21.42 169.828 21.0176C169.481 20.6064 169.008 20.4008 168.41 20.4008C167.837 20.4008 167.416 20.5146 167.147 20.742C166.887 20.9695 166.678 21.42 166.522 22.0936C166.375 22.601 166.136 22.9685 165.806 23.1959C165.485 23.4234 165.056 23.5371 164.518 23.5371C163.398 23.5371 162.839 23.0735 162.839 22.1461C162.839 21.49 163.168 20.8558 163.828 20.2434C164.487 19.631 165.355 19.1367 166.431 18.7605C167.507 18.3843 168.622 18.1962 169.776 18.1962C171.338 18.1962 172.605 18.5899 173.577 19.3773C174.549 20.1559 175.03 21.2319 175.022 22.6054V29.0486C175.022 29.3109 175.065 29.4991 175.152 29.613C175.247 29.7267 175.399 29.7834 175.608 29.7834C175.842 29.7923 176.007 29.8097 176.102 29.8361C176.206 29.8535 176.289 29.9016 176.349 29.9804C176.41 30.0503 176.441 30.1639 176.441 30.3214C176.441 30.8114 176.137 31.2357 175.529 31.5945C174.93 31.9444 174.167 32.1194 173.239 32.1194ZM167.082 27.8151C167.073 28.4012 167.203 28.8562 167.472 29.1798C167.741 29.5036 168.101 29.6654 168.553 29.6654C169.186 29.6654 169.789 29.3636 170.362 28.76V25.02C169.355 25.1599 168.557 25.4618 167.967 25.9254C167.377 26.3803 167.082 27.0102 167.082 27.8151Z" fill="#041527"/>
<path d="M11.2979 15.6587V33.8463L7.69735 32.0718V13.8843L25.7001 4.56873L44.2172 13.8843V32.0718L34.9588 36.7298L25.7001 41.3875L14.3841 35.6206L14.8985 16.9895L26.2145 11.6663L37.5304 17.4331V28.5232L25.7001 34.2898L21.5852 32.0718V20.5383L25.7001 18.3203L29.3006 20.5383L25.1857 22.7563V31.1847L33.9298 26.7487V19.2075L25.7001 15.2151L17.9846 19.2075V33.8463L25.7001 37.8386L40.6167 30.2975V15.6587L25.7001 8.56111L11.2979 15.6587Z" fill="url(#paint0_linear_3_1324)"/>
<defs>
<linearGradient id="paint0_linear_3_1324" x1="25.9573" y1="4.56873" x2="25.9573" y2="41.3875" gradientUnits="userSpaceOnUse">
<stop stop-color="#BD00A0"/>
<stop offset="1" stop-color="#5AB245"/>
</linearGradient>
</defs>
</svg>
